<svg xmlns="http://www.w3.org/2000/svg" viewBox="0 0 16 16">
    <path style="line-height:normal;text-indent:0;text-align:start;text-decoration-line:none;text-decoration-style:solid;text-decoration-color:#000;text-transform:none;block-progression:tb;isolation:auto;mix-blend-mode:normal" d="M 8 2 C 6.3490681 2 5 3.3490681 5 5 C 5 6.6509319 6.3490681 8 8 8 C 9.6509319 8 11 6.6509319 11 5 C 11 3.3490681 9.6509319 2 8 2 z M 8 8 C 5.243 8 3 10.243 3 13 L 4 13 C 4 10.794 5.794 9 8 9 C 8.489 9 8.9527187 9.1007188 9.3867188 9.2617188 C 9.6617188 8.9977188 9.9745937 8.7797969 10.308594 8.5917969 C 9.6145938 8.2267969 8.837 8 8 8 z M 8 3 C 9.1104918 3 10 3.8895082 10 5 C 10 6.1104918 9.1104918 7 8 7 C 6.8895082 7 6 6.1104918 6 5 C 6 3.8895082 6.8895082 3 8 3 z M 12 9 L 12 10.054688 C 11.683349 10.119952 11.392197 10.250355 11.130859 10.423828 L 10.378906 9.671875 L 9.671875 10.378906 L 10.421875 11.128906 C 10.247825 11.390916 10.116201 11.682532 10.050781 12 L 9 12 L 9 13 L 10.050781 13 L 10.050781 13.001953 C 10.116117 13.319014 10.248171 13.609552 10.421875 13.871094 L 9.671875 14.621094 L 10.378906 15.328125 L 11.128906 14.578125 C 11.390574 14.751793 11.682807 14.88007 12 14.945312 L 12 16 L 13 16 L 13 14.949219 C 13 14.949219 13.001953 14.949219 13.001953 14.949219 C 13.319288 14.883827 13.613311 14.75594 13.875 14.582031 L 14.621094 15.328125 L 15.328125 14.621094 L 14.582031 13.875 C 14.75594 13.613311 14.883827 13.317335 14.949219 13 L 16 13 L 16 12 L 14.949219 12 C 14.949219 12 14.949219 11.998047 14.949219 11.998047 C 14.883827 11.680712 14.75594 11.386689 14.582031 11.125 L 15.328125 10.378906 L 14.621094 9.671875 L 13.875 10.417969 C 13.613311 10.24406 13.317335 10.116173 13 10.050781 L 13 9 L 12 9 z M 12.5 11 C 13.334349 11 14 11.665651 14 12.5 C 14 13.334349 13.334349 14 12.5 14 C 11.665651 14 11 13.334349 11 12.5 C 11 11.665651 11.665651 11 12.5 11 z"/>
</svg>
